# xmcd
#
# Track frame offsets: 
#        182
#        6820
#        30445
#        47125
#        59407
#        81450
#        92032
#        101975
#        115955
#        131827
#        146250
#        160682
#        178010
#
# Disc length: 2597 seconds
#
# Revision: 0
# Processed by: cddbd v1.5.2PL0 Copyright (c) Steve Scherf et al.
# Submitted via: ExactAudioCopyFreeDBPlugin 1.0
#
DISCID=ae0a230d
DTITLE=Various Artist - Bronto Beats Megamix
DYEAR=1993
DGENRE=Euro-House
TTITLE0=Intro
TTITLE1=Honey C. - Stop The Disease
TTITLE2=Una - Can You Hear Me
TTITLE3=Cas Stewart - Bronto Beats
TTITLE4=Daydream feat. Michov - Creation By Automation
TTITLE5=Arena - Calor
TTITLE6=Radical Nomads - Watch Yourself
TTITLE7=Groovy Deep House - Stop
TTITLE8=Beyond - Opus
TTITLE9=Tranquil Voice - Acid India (Original Mix)
TTITLE10=X-Press 2 - Muzik Express
TTITLE11=Gradiva - To The Funky Beat
TTITLE12=Robin S. - Show Me Love
EXTD=
EXTT0=
EXTT1=
EXTT2=
EXTT3=
EXTT4=
EXTT5=
EXTT6=
EXTT7=
EXTT8=
EXTT9=
EXTT10=
EXTT11=
EXTT12=
PLAYORDER=
